<?xml version="1.0" encoding="UTF-8" standalone="no"?>
<svg
   xmlns:dc="http://purl.org/dc/elements/1.1/"
   xmlns:cc="http://creativecommons.org/ns#"
   xmlns:rdf="http://www.w3.org/1999/02/22-rdf-syntax-ns#"
   xmlns:svg="http://www.w3.org/2000/svg"
   xmlns="http://www.w3.org/2000/svg"
   xmlns:sodipodi="http://sodipodi.sourceforge.net/DTD/sodipodi-0.dtd"
   xmlns:inkscape="http://www.inkscape.org/namespaces/inkscape"
   width="48"
   height="48"
   viewBox="0 0 48 48"
   fill="none"
   version="1.1"
   id="svg10"
   sodipodi:docname="codersrank.svg"
   inkscape:version="1.0 (4035a4fb49, 2020-05-01)">
  <metadata
     id="metadata16">
    <rdf:RDF>
      <cc:Work
         rdf:about="">
        <dc:format>image/svg+xml</dc:format>
        <dc:type
           rdf:resource="http://purl.org/dc/dcmitype/StillImage" />
        <dc:title></dc:title>
      </cc:Work>
    </rdf:RDF>
  </metadata>
  <defs
     id="defs14" />
  <sodipodi:namedview
     inkscape:document-rotation="0"
     pagecolor="#ffffff"
     bordercolor="#666666"
     borderopacity="1"
     objecttolerance="10"
     gridtolerance="10"
     guidetolerance="10"
     inkscape:pageopacity="0"
     inkscape:pageshadow="2"
     inkscape:window-width="1366"
     inkscape:window-height="715"
     id="namedview12"
     showgrid="false"
     inkscape:zoom="8.2713178"
     inkscape:cx="32.526974"
     inkscape:cy="20.936587"
     inkscape:window-x="-8"
     inkscape:window-y="-8"
     inkscape:window-maximized="1"
     inkscape:current-layer="svg10" />
  <g
     transform="matrix(0.95905158,0,0,0.95905158,-0.79255162,1.0080737)"
     id="g833">
    <path
       id="path6"
       fill="#19223c"
       d="M 27.714262,10.797074 6.6386709,24.064602 C 5.645979,24.664961 5.1608128,25.337148 5.184529,26.081837 v 2.019268 c 0.023716,0.745368 0.5204017,1.406035 1.4907327,1.982678 L 17.10565,36.10432 c 0.06193,0.03625 0.131049,0.05855 0.202536,0.06525 0.07142,0.0067 0.14345,-0.0023 0.211075,-0.02643 0.06755,-0.02406 0.129085,-0.06261 0.180243,-0.113024 0.05109,-0.05035 0.09053,-0.111264 0.1156,-0.178549 l 2.341809,-5.659373 -4.966858,-2.812068 c -0.143178,-0.07427 -0.263521,-0.185936 -0.348289,-0.323219 -0.06349,-0.103132 -0.105775,-0.217918 -0.12441,-0.337584 -0.01871,-0.119665 -0.01328,-0.241837 0.01579,-0.359402 0.02907,-0.117633 0.08125,-0.228219 0.153546,-0.325387 0.0723,-0.09717 0.163235,-0.179024 0.267451,-0.240686 l 9.118553,-5.588219 3.76004,-9.15581 c 0.01504,-0.04288 0.0164,-0.08938 0.0039,-0.133072 -0.01247,-0.04369 -0.03829,-0.08243 -0.07372,-0.110866 -0.03524,-0.02809 -0.07854,-0.0441 -0.123528,-0.04569 -0.04506,-0.0016 -0.08938,0.01134 -0.126509,0.03688 z"
       style="stroke-width:0.677607" />
    <path
       id="path8"
       fill="#67a4ac"
       d="M 45.027117,18.187717 34.73969,11.951051 c -0.05963,-0.0372 -0.126577,-0.06116 -0.196234,-0.07032 -0.06973,-0.0091 -0.140604,-0.0032 -0.207823,0.0173 -0.06722,0.02055 -0.12922,0.05527 -0.181937,0.10181 -0.05265,0.04655 -0.09473,0.103844 -0.12346,0.168033 l -2.412281,5.659345 4.89571,2.920486 c 0.140942,0.07657 0.258168,0.191085 0.340159,0.330672 0.08219,0.140061 0.125492,0.299502 0.125492,0.461789 0,0.162354 -0.0433,0.321796 -0.125492,0.461789 -0.08125,0.139384 -0.19881,0.25417 -0.340159,0.332028 l -9.189027,5.407302 -3.903014,9.084675 c -0.03774,0.04317 -0.05713,0.09947 -0.0538,0.156799 0.0033,0.05726 0.02894,0.110924 0.07141,0.149479 0.02087,0.01897 0.04527,0.03347 0.07175,0.04289 0.02656,0.0093 0.05469,0.01335 0.08274,0.01165 0.02812,-0.0016 0.05556,-0.0088 0.08084,-0.02121 0.0252,-0.01239 0.04777,-0.02974 0.06621,-0.05096 l 6.741511,-4.073772 2.660962,3.821702 c 0.05821,0.08809 0.137148,0.16039 0.229912,0.2106 0.09283,0.05028 0.196506,0.07684 0.30201,0.07739 h 6.386444 c 0.11648,4.06e-4 0.230792,-0.03144 0.330265,-0.09195 0.09947,-0.06051 0.180311,-0.147312 0.233503,-0.250918 0.05475,-0.10381 0.08064,-0.220426 0.07508,-0.337719 -0.0056,-0.117227 -0.04256,-0.230861 -0.106927,-0.329047 l -4.328553,-6.63377 8.76349,-5.298885 c 0.993372,-0.601038 1.490057,-1.273901 1.490057,-2.019269 v -1.982672 c 0,-0.745368 -0.496685,-1.417553 -1.490735,-2.018592 z"
       style="stroke-width:0.677607" />
  </g>
</svg>
